<svg width="30.000000" height="30.000000" viewBox="0 0 30 30" fill="none" xmlns="http://www.w3.org/2000/svg" xmlns:xlink="http://www.w3.org/1999/xlink">
	<desc>
			Created with Pixso.
	</desc>
	<defs>
		<clipPath id="clip105_85">
			<rect id="affiliate" rx="0.000000" width="29.000000" height="29.000000" transform="translate(0.500000 0.500000)" fill="white" fill-opacity="0"/>
		</clipPath>
	</defs>
	<rect id="affiliate" rx="0.000000" width="29.000000" height="29.000000" transform="translate(0.500000 0.500000)" fill="#FFFFFF" fill-opacity="0"/>
	<g clip-path="url(#clip105_85)">
		<path id="Vector" d="M8.23 15.82L6.8 9.83M12.95 17.04L22.02 7.97M18.87 23.12L14.12 21.87M9.37 25.62C6.61 25.62 4.37 23.38 4.37 20.62C4.37 17.86 6.61 15.62 9.37 15.62C12.13 15.62 14.37 17.86 14.37 20.62C14.37 23.38 12.13 25.62 9.37 25.62ZM6.25 10C4.86 10 3.75 8.88 3.75 7.5C3.75 6.11 4.86 5 6.25 5C7.63 5 8.75 6.11 8.75 7.5C8.75 8.88 7.63 10 6.25 10ZM23.75 8.75C22.36 8.75 21.25 7.63 21.25 6.25C21.25 4.86 22.36 3.75 23.75 3.75C25.13 3.75 26.25 4.86 26.25 6.25C26.25 7.63 25.13 8.75 23.75 8.75ZM21.25 26.25C19.86 26.25 18.75 25.13 18.75 23.75C18.75 22.36 19.86 21.25 21.25 21.25C22.63 21.25 23.75 22.36 23.75 23.75C23.75 25.13 22.63 26.25 21.25 26.25Z" stroke="#FFFFFF" stroke-opacity="1.000000" stroke-width="2.300000" stroke-linecap="round"/>
	</g>
</svg>
