<svg width="30.000000" height="30.000000" viewBox="0 0 30 30" fill="none" xmlns="http://www.w3.org/2000/svg" xmlns:xlink="http://www.w3.org/1999/xlink">
	<desc>
			Created with Pixso.
	</desc>
	<defs>
		<clipPath id="clip105_87">
			<rect id="archive" rx="0.000000" width="29.000000" height="29.000000" transform="translate(0.500000 0.500000)" fill="white" fill-opacity="0"/>
		</clipPath>
	</defs>
	<rect id="archive" rx="0.000000" width="29.000000" height="29.000000" transform="translate(0.500000 0.500000)" fill="#FFFFFF" fill-opacity="0"/>
	<g clip-path="url(#clip105_87)">
		<path id="Vector" d="M25 10C25.69 10 26.25 9.44 26.25 8.75L26.25 7.5C26.25 6.8 25.69 6.25 25 6.25L5 6.25C4.3 6.25 3.75 6.8 3.75 7.5L3.75 8.75C3.75 9.44 4.3 10 5 10L25 10ZM5 10L5 21.25C5 22.63 6.11 23.75 7.5 23.75L22.5 23.75C23.88 23.75 25 22.63 25 21.25L25 10M11.87 16.25L18.12 16.25" stroke="#FFFFFF" stroke-opacity="1.000000" stroke-width="2.300000" stroke-linecap="round"/>
	</g>
</svg>
