<svg width="30.000000" height="30.000000" viewBox="0 0 30 30" fill="none" xmlns="http://www.w3.org/2000/svg" xmlns:xlink="http://www.w3.org/1999/xlink">
	<desc>
			Created with Pixso.
	</desc>
	<defs>
		<clipPath id="clip105_94">
			<rect id="cloud-upload" rx="0.000000" width="29.000000" height="29.000000" transform="translate(0.500000 0.500000)" fill="white" fill-opacity="0"/>
		</clipPath>
	</defs>
	<rect id="cloud-upload" rx="0.000000" width="29.000000" height="29.000000" transform="translate(0.500000 0.500000)" fill="#FFFFFF" fill-opacity="0"/>
	<g clip-path="url(#clip105_94)">
		<path id="Vector" d="M9.6 23.12L7.29 23.12C4.99 23.12 3.12 21.06 3.12 18.53C3.12 16.66 4.49 15.28 6.21 14.94C7.17 14.75 8.12 14.04 8.3 13.08C8.96 9.58 11.41 6.87 14.59 6.87C16.97 6.87 19.24 8.25 20.23 11C20.52 11.79 21.32 12.34 22.16 12.42C24.7 12.66 26.87 14.7 26.87 17.24C26.87 20.48 24.47 23.12 21.52 23.12L19.21 23.12" stroke="#FFFFFF" stroke-opacity="1.000000" stroke-width="2.300000" stroke-linecap="round"/>
		<path id="Vector" d="M14.37 25L14.37 15M18.12 18.57L14.37 15L10.62 18.57" stroke="#FFFFFF" stroke-opacity="1.000000" stroke-width="2.300000" stroke-linecap="round"/>
	</g>
</svg>
