<svg width="30.000000" height="30.000000" viewBox="0 0 30 30" fill="none" xmlns="http://www.w3.org/2000/svg" xmlns:xlink="http://www.w3.org/1999/xlink">
	<defs>
		<clipPath id="clip105_98">
			<rect id="file-add" rx="0.000000" width="29.000000" height="29.000000" transform="translate(0.500000 0.500000)" fill="white" fill-opacity="0"/>
		</clipPath>
	</defs>
	<rect id="file-add" rx="0.000000" width="29.000000" height="29.000000" transform="translate(0.500000 0.500000)" fill="#FFFFFF" fill-opacity="0"/>
	<g clip-path="url(#clip105_98)">
		<path id="Vector" d="M16.25 25L20 25C21.38 25 22.5 23.88 22.5 22.5L22.5 12.5L22.5 12.28C22.5 11.62 22.23 10.98 21.76 10.51L16.98 5.73C16.51 5.26 15.87 5 15.21 5L15 5L10 5C8.61 5 7.5 6.11 7.5 7.5L7.5 16.25M22.5 12.5L17.5 12.5C16.11 12.5 15 11.38 15 10L15 5M7.5 28.12L7.5 25L7.5 21.87M7.5 25L4.37 25M7.5 25L10.62 25" stroke="#FFFFFF" stroke-opacity="1.000000" stroke-width="2.300000" stroke-linecap="round"/>
	</g>
</svg>
