<svg width="30.000000" height="30.000000" viewBox="0 0 30 30" fill="none" xmlns="http://www.w3.org/2000/svg" xmlns:xlink="http://www.w3.org/1999/xlink">
	<defs>
		<clipPath id="clip105_78">
			<rect id="files" rx="0.000000" width="29.000000" height="29.000000" transform="translate(0.500000 0.500000)" fill="white" fill-opacity="0"/>
		</clipPath>
	</defs>
	<rect id="files" rx="0.000000" width="29.000000" height="29.000000" transform="translate(0.500000 0.500000)" fill="#FFFFFF" fill-opacity="0"/>
	<g clip-path="url(#clip105_78)">
		<path id="Vector" d="M25 11.25L20 11.25C18.61 11.25 17.5 10.13 17.5 8.75L17.5 3.75M25 21.25C25 22.63 23.88 23.75 22.5 23.75L12.5 23.75C11.11 23.75 10 22.63 10 21.25L10 6.25C10 4.86 11.11 3.75 12.5 3.75L17.71 3.75C18.37 3.75 19.01 4.01 19.48 4.48L24.26 9.26C24.73 9.73 25 10.37 25 11.03L25 21.25Z" stroke="#FFFFFF" stroke-opacity="1.000000" stroke-width="2.300000" stroke-linecap="round"/>
		<path id="Vector" d="M10 7.5L8.75 7.5C7.36 7.5 6.25 8.61 6.25 10L6.25 25C6.25 26.38 7.36 27.5 8.75 27.5L18.75 27.5C20.13 27.5 21.25 26.38 21.25 25L21.25 23.75" stroke="#FFFFFF" stroke-opacity="1.000000" stroke-width="2.300000" stroke-linecap="round"/>
	</g>
</svg>
