<svg width="30.000000" height="30.000000" viewBox="0 0 30 30" fill="none" xmlns="http://www.w3.org/2000/svg" xmlns:xlink="http://www.w3.org/1999/xlink">
	<defs>
		<clipPath id="clip105_91">
			<rect id="folders" rx="0.000000" width="29.000000" height="29.000000" transform="translate(0.500000 0.500000)" fill="white" fill-opacity="0"/>
		</clipPath>
	</defs>
	<rect id="folders" rx="0.000000" width="29.000000" height="29.000000" transform="translate(0.500000 0.500000)" fill="#FFFFFF" fill-opacity="0"/>
	<g clip-path="url(#clip105_91)">
		<path id="Vector" d="M10 5L14.4 5C15.41 5 16.32 5.6 16.71 6.54L16.85 6.89C17.24 7.82 18.15 8.43 19.16 8.43L25 8.43C26.38 8.43 27.5 9.55 27.5 10.93L27.5 20C27.5 21.38 26.38 22.5 25 22.5L10 22.5C8.61 22.5 7.5 21.38 7.5 20L7.5 7.5C7.5 6.11 8.61 5 10 5Z" stroke="#FFFFFF" stroke-opacity="1.000000" stroke-width="2.300000"/>
		<path id="Vector" d="M7.5 8.75L6.25 8.75C4.86 8.75 3.75 9.86 3.75 11.25L3.75 23.75C3.75 25.13 4.86 26.25 6.25 26.25L21.25 26.25C22.63 26.25 23.75 25.13 23.75 23.75L23.75 22.5" stroke="#FFFFFF" stroke-opacity="1.000000" stroke-width="2.300000" stroke-linecap="round"/>
	</g>
</svg>
