<svg width="30.000000" height="30.000000" viewBox="0 0 30 30" fill="none" xmlns="http://www.w3.org/2000/svg" xmlns:xlink="http://www.w3.org/1999/xlink">
	<defs>
		<clipPath id="clip105_81">
			<rect id="inbox" rx="0.000000" width="29.000000" height="29.000000" transform="translate(0.500000 0.500000)" fill="white" fill-opacity="0"/>
		</clipPath>
	</defs>
	<rect id="inbox" rx="0.000000" width="29.000000" height="29.000000" transform="translate(0.500000 0.500000)" fill="#FFFFFF" fill-opacity="0"/>
	<g clip-path="url(#clip105_81)">
		<path id="Vector" d="M23 6.84C22.7 5.75 21.71 5 20.59 5L9.4 5C8.28 5 7.29 5.75 6.99 6.84L3.75 18.75L3.75 23.75C3.75 24.44 4.3 25 5 25L25 25C25.69 25 26.25 24.44 26.25 23.75L26.25 18.75L23 6.84ZM26.25 18.75L21.18 18.75C20.82 18.75 20.48 18.9 20.25 19.16L18.18 21.46C17.94 21.72 17.61 21.87 17.25 21.87L12.74 21.87C12.38 21.87 12.05 21.72 11.81 21.46L9.74 19.16C9.51 18.9 9.17 18.75 8.81 18.75L3.75 18.75" stroke="#FFFFFF" stroke-opacity="1.000000" stroke-width="2.300000"/>
	</g>
</svg>
