<svg width="30.000000" height="30.000000" viewBox="0 0 30 30" fill="none" xmlns="http://www.w3.org/2000/svg" xmlns:xlink="http://www.w3.org/1999/xlink">
	<desc>
			Created with Pixso.
	</desc>
	<defs>
		<clipPath id="clip105_83">
			<rect id="star" rx="0.000000" width="29.000000" height="29.000000" transform="translate(0.500000 0.500000)" fill="white" fill-opacity="0"/>
		</clipPath>
	</defs>
	<rect id="star" rx="0.000000" width="29.000000" height="29.000000" transform="translate(0.500000 0.500000)" fill="#FFFFFF" fill-opacity="0"/>
	<g clip-path="url(#clip105_83)">
		<path id="Vector" d="M24.9 11.76L20.14 11.76C19.05 11.76 18.09 11.05 17.76 10.01L16.19 5.02C15.82 3.86 14.17 3.86 13.8 5.02L12.23 10.01C11.9 11.05 10.94 11.76 9.85 11.76L5.09 11.76C3.88 11.76 3.38 13.31 4.35 14.02L8.59 17.1C9.51 17.77 9.86 18.96 9.45 20.02L7.62 24.8C7.17 25.96 8.51 26.99 9.52 26.26L13.52 23.34C14.4 22.71 15.59 22.71 16.47 23.34L20.47 26.26C21.48 26.99 22.82 25.96 22.37 24.8L20.54 20.02C20.13 18.96 20.48 17.77 21.4 17.1L25.64 14.02C26.61 13.31 26.11 11.76 24.9 11.76Z" stroke="#FFFFFF" stroke-opacity="1.000000" stroke-width="2.300000"/>
	</g>
</svg>
